The Bodyguard 2.2007.BRRip.XviD.AC3-PsiX

 
http://www.freeimgshost.com/fullsize/n9katsn31gusxpvpkoid.jpg



The best agent of Vieng, the country near the boundary of Thailand
received the important mission that he had to catch two armed dealers
who could be the dangerous for his country.



 
http://www.freeimgshost.com/fullsize/o9a2hdlcihjq5cqoiq30.jpg

Director:

Petchtai Wongkamlao

Writer:

Petchtai Wongkamlao

Stars:

Petchtai Wongkamlao, Jacqueline Apitananon, Janet Khiew 

 
http://www.freeimgshost.com/fullsize/a6jdyqn9wxvquazfrl7n.png
 
http://www.freeimgshost.com/fullsize/kbe4687ylwpt95v2ngpn.png
 
http://www.freeimgshost.com/fullsize/aw4zozmhqxtcf35b47pc.png
 
http://www.freeimgshost.com/fullsize/6h01c7qk4lrk0ajgsmt.png


The.Bodyguard.2.2007.BRRip.XviD.AC3-PsiX.avi
Format : AVI
Format/Info : Audio Video Interleave
File size : 1.36 GiB
Duration : 1h 34mn
Overall bit rate : 2 055 Kbps

Video
ID : 0
Format : MPEG-4 Visual
Format profile : Advanced Simple@L5
Format settings, BVOP : 2
Format settings, QPel : No
Format settings, GMC : No warppoints
Format settings, Matrix : Default (H.263)
Muxing mode : Packed bitstream
Codec ID : XVID
Codec ID/Hint : XviD
Duration : 1h 34mn
Bit rate : 1 663 Kbps
Width : 720 pixels
Height : 384 pixels
Display aspect ratio : 1.85:1
Frame rate : 23.976 fps
Color space : YUV
Chroma subsampling : 4:2:0
Bit depth : 8 bits
Scan type : Progressive
Compression mode : Lossy
Bits/(Pixel*Frame) : 0.251
Stream size : 1.10 GiB (81%)
Writing library : XviD 1.2.1 (UTC 2008-12-04)

Audio
ID : 1
Format : AC-3
Format/Info : Audio Coding 3
Mode extension : CM (complete main)
Format settings, Endianness : Big
Codec ID : 2000
Duration : 1h 34mn
Bit rate mode : Constant
Bit rate : 384 Kbps
Channel(s) : 6 channels
Channel positions : Front: L C R, Side: L R, LFE
Sampling rate : 48.0 KHz
Bit depth : 16 bits
Compression mode : Lossy
Stream size : 261 MiB (19%)
Alignment : Aligned on interleaves
Interleave, duration : 64 ms (1.53 video frames)
Interleave, preload duration : 192 ms
Title : The.Bodyguard.2.2007.BluRay.720p.DTS.x264-CHD - [0] Thai



Encoded............: PsiX
Source.............: 720p-CHD
Subs..........srt...English
Language.........Thai 




